<?xml version="1.0" encoding="utf-8"?>
<!-- Generator: Adobe Illustrator 28.1.0, SVG Export Plug-In . SVG Version: 6.00 Build 0)  -->
<svg version="1.1" id="レイヤー_1" xmlns="http://www.w3.org/2000/svg" xmlns:xlink="http://www.w3.org/1999/xlink" x="0px"
	 y="0px" viewBox="0 0 16 16" style="enable-background:new 0 0 16 16;" xml:space="preserve">
<style type="text/css">
	.st0{fill:#FFFFFF;}
</style>
<path class="st0" d="M14.5,8c0-3.6-2.9-6.5-6.5-6.5S1.5,4.4,1.5,8s2.9,6.5,6.5,6.5S14.5,11.6,14.5,8z M0,8c0-4.4,3.6-8,8-8
	s8,3.6,8,8s-3.6,8-8,8S0,12.4,0,8z M5.9,4.6c0.2-0.1,0.5-0.1,0.8,0l4.5,2.8c0.2,0.1,0.4,0.4,0.4,0.6s-0.1,0.5-0.4,0.6l-4.5,2.8
	c-0.2,0.1-0.5,0.1-0.8,0S5.5,11,5.5,10.8V5.2C5.5,5,5.6,4.7,5.9,4.6z"/>
</svg>
