<?xml version="1.0" encoding="UTF-8" standalone="no"?>
<svg
   xmlns:dc="http://purl.org/dc/elements/1.1/"
   xmlns:cc="http://creativecommons.org/ns#"
   xmlns:rdf="http://www.w3.org/1999/02/22-rdf-syntax-ns#"
   xmlns:svg="http://www.w3.org/2000/svg"
   xmlns="http://www.w3.org/2000/svg"
   xmlns:sodipodi="http://sodipodi.sourceforge.net/DTD/sodipodi-0.dtd"
   xmlns:inkscape="http://www.inkscape.org/namespaces/inkscape"
   version="1.0"
   id="svg4328"
   sodipodi:version="0.32"
   sodipodi:docname="Flag_of_the_Republic_of_Croatia_in_1990.svg"
   inkscape:version="1.0.2 (e86c870879, 2021-01-15)"
   inkscape:output_extension="org.inkscape.output.svg.inkscape"
   x="0px"
   y="0px"
   width="4000px"
   height="2000px"
   viewBox="0 0 4000 2000"
   enable-background="new 0 0 4000 2000"
   xml:space="preserve"><metadata
   id="metadata25"><rdf:RDF><cc:Work
       rdf:about=""><dc:format>image/svg+xml</dc:format><dc:type
         rdf:resource="http://purl.org/dc/dcmitype/StillImage" /></cc:Work></rdf:RDF></metadata>
<defs
   id="defs3" />
<sodipodi:namedview
   id="base"
   inkscape:cy="464.38904"
   bordercolor="#666666"
   inkscape:cx="1703.0022"
   borderopacity="1.0"
   objecttolerance="10"
   gridtolerance="10000"
   inkscape:zoom="0.22627417"
   guidetolerance="10"
   showgrid="false"
   pagecolor="#ffffff"
   inkscape:current-layer="layer1"
   inkscape:window-y="25"
   inkscape:window-x="0"
   inkscape:window-width="1366"
   inkscape:pageopacity="0.0"
   inkscape:pageshadow="2"
   inkscape:window-height="694"
   inkscape:document-units="px"
   inkscape:window-maximized="1"
   inkscape:document-rotation="0">
	</sodipodi:namedview>
<g
   id="layer1"
   transform="translate(1774.29,953.352)"
   inkscape:label="Layer 1"
   inkscape:groupmode="layer">
	<rect
   id="rect4081"
   x="-1774.286"
   y="-953.352"
   fill="#FFFFFF"
   width="4000"
   height="2000" />
	<rect
   id="rect4083"
   x="-1774.286"
   y="-953.352"
   fill="#DE1818"
   width="4000"
   height="666.667"
   style="fill:#dd0000;fill-opacity:1" />
	<rect
   id="rect4085"
   x="-1774.286"
   y="379.981"
   fill="#00338C"
   width="4000"
   height="666.666"
   style="fill:#003893;fill-opacity:1" />
	
<g
   id="g885"><g
     id="g4120"
     transform="translate(509.996,4.0228675e-2)">
		<path
   id="path4238"
   sodipodi:nodetypes="cccccccc"
   fill="#FFFFFF"
   stroke="#E61717"
   stroke-width="7.276"
   d="M-539.617-217.754    h510.533c0-0.606,0,299.528,0,299.528c0,37.593,9.701,134.606-61.846,174.624c-46.081,25.466-137.032,19.402-192.814,54.57    c-56.995-35.168-146.733-29.104-192.813-54.57c-71.547-40.019-63.06-137.031-63.06-174.624V-217.754z" />
		<path
   id="path4240"
   fill="#E61717"
   d="M-435.102,188.492v80.031c30.121,8.242,66.393,11.895,100.656,21.344V188.492H-435.102z     M-233.79,188.492v101.375c34.266-9.449,70.504-13.102,100.625-21.344v-80.031H-233.79z" />
		<g
   id="g4244"
   transform="matrix(1.21267,0,0,1.21267,-2102.52,-1134.53)">
			<rect
   id="rect4246"
   x="1375"
   y="757.734"
   fill="#E61717"
   width="83"
   height="84.267" />
			<rect
   id="rect4248"
   x="1541"
   y="757.101"
   fill="#E61717"
   width="83.001"
   height="84.9" />
			<rect
   id="rect4250"
   x="1375"
   y="925"
   fill="#E61717"
   width="83"
   height="83" />
			<rect
   id="rect4252"
   x="1541"
   y="925"
   fill="#E61717"
   width="83.001"
   height="83" />
			<rect
   id="rect4254"
   x="1458"
   y="1008"
   fill="#E61717"
   width="83"
   height="83" />
			<rect
   id="rect4256"
   x="1289.468"
   y="842"
   fill="#E61717"
   width="85.532"
   height="83" />
			<rect
   id="rect4258"
   x="1458"
   y="842"
   fill="#E61717"
   width="83"
   height="83" />
			<rect
   id="rect4260"
   x="1624"
   y="842"
   fill="#E61717"
   width="84.266"
   height="83" />
		</g>
		<path
   id="path4262"
   fill="#E61717"
   d="M-133.153,87.839v100.65h95.357c3.438-9.049,5.873-18.327,7.598-27.551v-73.1H-133.153z" />
		<path
   id="path4264"
   fill="#E61717"
   d="M-435.106,87.839v100.65h-95.234c-3.436-9.049-5.866-18.327-7.588-27.551v-73.1H-435.106z" />
	</g><path
     inkscape:connector-curvature="0"
     sodipodi:nodetypes="ccccccccc"
     id="path4238-3"
     d="m -29.621,-217.71377 h 510.5331 v 18.01913 281.509859 c 0,37.592711 9.7015,134.606231 -61.8459,174.624331 -46.0813,25.4659 -137.03159,19.40238 -192.81429,54.56978 C 169.25651,275.84193 79.5191,281.90523 33.4377,256.43923 -38.1096,216.42123 -29.621,119.40793 -29.621,81.815219 Z"
     style="fill:#ffffff;fill-opacity:1;stroke:#dd0000;stroke-width:7.27601004;stroke-opacity:1" /><path
     id="path4264-2"
     style="fill:#dd0000;fill-opacity:1;stroke:none;stroke-width:6;stroke-opacity:1"
     d="M 74.879774,87.875846 V 188.52716 h -95.2348 c -3.4345,-9.0489 -5.8659,-18.3277 -7.5878,-27.5503 V 87.875846 Z m 301.954296,0 V 188.52716 h 95.3568 c 3.4389,-9.0489 5.8734,-18.3277 7.5975,-27.5503 V 87.875846 Z m 0.009,-201.300846 H 479.02991 V -12.773392 H 376.84302 Z m -201.30324,0 H 276.19139 V -12.773392 H 175.53978 Z m -204.373919,0 H 74.888044 V -12.773392 H -28.834139 Z M 175.53978,87.87822 H 276.19139 V 188.52983 H 175.53978 Z M 276.19138,-12.773382 H 376.84299 V 87.878229 H 276.19138 Z m -201.303212,0 H 175.53978 V 87.878229 H 74.888168 Z M 276.19138,-216.37952 h 100.65161 v 102.95454 H 276.19138 Z m -201.303212,0.76764 H 175.53978 v 102.1869 H 74.888168 Z m -0.0038,404.14056 v 80.0312 c 30.120592,8.2423 66.391692,11.8936 100.656302,21.3438 v -101.375 z m 201.312502,0 v 101.375 c 34.2647,-9.4502 70.5044,-13.1015 100.62499,-21.3438 v -80.0312 z" /></g></g>
</svg>
