<?xml version="1.0" encoding="utf-8"?>
<!-- Generator: Adobe Illustrator 28.1.0, SVG Export Plug-In . SVG Version: 6.00 Build 0)  -->
<svg version="1.1" id="レイヤー_1" xmlns="http://www.w3.org/2000/svg" xmlns:xlink="http://www.w3.org/1999/xlink" x="0px"
	 y="0px" viewBox="0 0 18 16" style="enable-background:new 0 0 18 16;" xml:space="preserve">
<style type="text/css">
	.st0{fill:#1E3050;}
</style>
<path class="st0" d="M16,0H2C0.9,0,0,0.9,0,2v9c0,1.1,0.9,2,2,2h5.5l-0.3,1H5c-0.6,0-1,0.4-1,1s0.4,1,1,1h8c0.6,0,1-0.4,1-1
	s-0.4-1-1-1h-2.2l-0.3-1H16c1.1,0,2-0.9,2-2V2C18,0.9,17.1,0,16,0z M10.6,6.4L16,2.9v7L10.6,6.4z M6.9,6.4L2,9.5V3.2L6.9,6.4z
	 M3.8,2h9.9L8.7,5.2L3.8,2z M3.4,11l5.4-3.4l5.4,3.4H3.4z"/>
</svg>
