<?xml version="1.0" encoding="UTF-8"?>
<svg id="_レイヤー_1" data-name="レイヤー_1" xmlns="http://www.w3.org/2000/svg" version="1.1" viewBox="0 0 15.5 16">
  <!-- Generator: Adobe Illustrator 29.8.1, SVG Export Plug-In . SVG Version: 2.1.1 Build 2)  -->
  <defs>
    <style>
      .st0 {
        fill: #fff;
      }
    </style>
  </defs>
  <path class="st0" d="M7.8.2C3.5.2,0,3.7,0,8s3.5,7.8,7.8,7.8,7.8-3.5,7.8-7.8S12,.2,7.8.2ZM10.9,11.7c-.1,0-.2,0-.3-.1-1.9-1.2-4.2-1.2-6.5-.8-.1,0-.3,0-.4,0-.3,0-.5-.2-.5-.5s.2-.5.4-.5c2.6-.6,5.2-.5,7.4.8.2.1.3.2.3.5s-.2.5-.5.5ZM11.7,9.6c-.2,0-.3,0-.4-.1-2-1.2-4.9-1.6-7.5-.9-.2,0-.2,0-.4,0-.3,0-.6-.3-.6-.6s.2-.6.5-.6c.9-.2,1.8-.4,3.1-.4,2,0,4,.5,5.5,1.4.3.1.4.3.4.6,0,.3-.3.6-.6.6ZM12.7,7.2c-.2,0-.3,0-.4-.1-2.2-1.3-6.2-1.6-8.8-.9-.1,0-.3,0-.4,0-.4,0-.7-.3-.7-.7s.3-.7.5-.7c1.1-.3,2.3-.5,3.7-.5,2.3,0,4.7.5,6.4,1.5.2.1.4.3.4.7s-.3.7-.7.7Z"/>
</svg>