<svg xmlns="http://www.w3.org/2000/svg" viewBox="0 0 640 512"><!--!Font Awesome Free 6.5.1 by @fontawesome - https://fontawesome.com License - https://fontawesome.com/license/free Copyright 2024 Fonticons, Inc.--><path fill="#ffffff" d="M533.6 32.5C598.5 85.2 640 165.8 640 256s-41.5 170.8-106.4 223.5c-10.1 8.4-25.3 6.6-33.8-3.5s-6.6-25.3 3.5-33.8C557.5 398.2 592 331.2 592 256s-34.5-142.2-88.7-189.2c-10.1-8.4-11.8-23.7-3.5-33.8s23.7-11.8 33.8-3.5zM473.1 107c43.2 35.2 70.9 88.9 70.9 149s-27.7 113.8-70.9 149c-10.1 8.4-25.3 6.6-33.8-3.5s-6.6-25.3 3.5-33.8C483.8 326.3 504 292.8 504 256s-20.2-70.3-61.2-94.8c-10.1-8.4-11.8-23.7-3.5-33.8s23.7-11.8 33.8-3.5zm-60.5 74.5C434.1 199.1 448 225.9 448 256s-13.9 56.9-35.4 74.5c-10.1 8.4-25.3 6.6-33.8-3.5s-6.6-25.3 3.5-33.8C393.1 284.4 400 271 400 256s-6.9-28.4-18.8-37.3c-10.1-8.4-11.8-23.7-3.5-33.8s23.7-11.8 33.8-3.5zM301.1 34.8C312.6 40 320 51.4 320 64V448c0 12.6-7.4 24-18.9 29.2s-25 3.1-34.4-5.3L131.8 352H64c-35.3 0-64-28.7-64-64V224c0-35.3 28.7-64 64-64h67.8L266.7 40.1c9.4-8.4 22.9-10.4 34.4-5.3z"/></svg> 